<svg xmlns="http://www.w3.org/2000/svg" width="49.136" height="49.136" viewBox="0 0 49.136 49.136">
  <g id="Business_Process_" data-name="Business Process " transform="matrix(0.998, -0.07, 0.07, 0.998, 1.477, 10.568)">
    <g id="automated-process" transform="translate(-0.736 -10.645) rotate(4)">
      <path id="Path_15" data-name="Path 15" d="M9.827,4.914A4.914,4.914,0,1,0,4.914,9.827,4.914,4.914,0,0,0,9.827,4.914Zm-8.189,0A3.276,3.276,0,1,1,4.914,8.189,3.276,3.276,0,0,1,1.638,4.914Z" transform="translate(19.655 13.103)" fill="#fff"/>
      <path id="Path_16" data-name="Path 16" d="M1.638,31.121H6.551a1.638,1.638,0,0,0,1.638-1.638V26.208A1.638,1.638,0,0,0,6.551,24.57H4.914v-.819a.819.819,0,0,1,.819-.819H13.1V24.57H11.465a1.638,1.638,0,0,0-1.638,1.638v3.276a1.638,1.638,0,0,0,1.638,1.638h4.914a1.638,1.638,0,0,0,1.638-1.638V26.208a1.638,1.638,0,0,0-1.638-1.638H14.741V22.932h7.37a.819.819,0,0,1,.819.819v.819H21.292a1.638,1.638,0,0,0-1.638,1.638v3.276a1.638,1.638,0,0,0,1.638,1.638h4.914a1.638,1.638,0,0,0,1.638-1.638V26.208a1.638,1.638,0,0,0-1.638-1.638H24.568v-.819a2.457,2.457,0,0,0-2.457-2.457h-7.37V19.62h.025a1.335,1.335,0,0,0,1.122-.843l.43-1.074a8.145,8.145,0,0,0,1.474-.613l1.065.458a1.336,1.336,0,0,0,1.386-.2c.215-.179.423-.372.623-.573s.392-.409.573-.622a1.339,1.339,0,0,0,.2-1.392L21.179,13.7a8.144,8.144,0,0,0,.613-1.474l1.074-.43a1.333,1.333,0,0,0,.843-1.12c.028-.278.039-.56.039-.843s-.011-.565-.037-.843a1.335,1.335,0,0,0-.843-1.122l-1.074-.43a8.144,8.144,0,0,0-.613-1.474l.458-1.065a1.338,1.338,0,0,0-.2-1.386c-.179-.215-.372-.423-.573-.623s-.409-.392-.622-.573a1.336,1.336,0,0,0-1.392-.2l-1.065.457a8.144,8.144,0,0,0-1.474-.613L15.887.881a1.335,1.335,0,0,0-1.12-.843,9.222,9.222,0,0,0-1.688,0,1.335,1.335,0,0,0-1.123.843l-.43,1.074a8.144,8.144,0,0,0-1.474.613L8.988,2.111a1.338,1.338,0,0,0-1.386.2c-.215.179-.423.372-.623.573s-.392.409-.573.622a1.339,1.339,0,0,0-.2,1.392l.457,1.065a8.145,8.145,0,0,0-.613,1.474l-1.074.43a1.335,1.335,0,0,0-.843,1.12c-.028.278-.039.56-.039.843s.011.565.037.843a1.335,1.335,0,0,0,.843,1.122l1.074.43A8.145,8.145,0,0,0,6.662,13.7L6.2,14.763a1.338,1.338,0,0,0,.2,1.386c.179.215.372.423.573.623s.409.392.622.573a1.337,1.337,0,0,0,1.392.2l1.065-.457a8.144,8.144,0,0,0,1.474.613l.43,1.074a1.335,1.335,0,0,0,1.12.843H13.1v1.677H5.732a2.457,2.457,0,0,0-2.457,2.457v.819H1.638A1.638,1.638,0,0,0,0,26.208v3.276A1.638,1.638,0,0,0,1.638,31.121Zm14.741-1.638H11.465V26.208h4.914Zm9.827,0H21.292V26.208h4.914ZM12.9,16.717a.819.819,0,0,0-.563-.491,6.51,6.51,0,0,1-1.809-.751.819.819,0,0,0-.748-.052L8.5,15.968c-.127-.112-.252-.228-.373-.35s-.237-.246-.35-.373l.546-1.273a.819.819,0,0,0-.052-.748,6.511,6.511,0,0,1-.751-1.809.819.819,0,0,0-.491-.563l-1.285-.514c-.011-.169-.016-.339-.016-.51s0-.341.016-.51L7.033,8.8a.819.819,0,0,0,.491-.563,6.511,6.511,0,0,1,.751-1.809.819.819,0,0,0,.052-.748L7.78,4.411c.112-.127.228-.252.35-.373s.246-.237.373-.35l1.273.546a.819.819,0,0,0,.748-.052,6.511,6.511,0,0,1,1.809-.751A.819.819,0,0,0,12.9,2.94l.514-1.285a7.444,7.444,0,0,1,1.02,0l.514,1.285a.819.819,0,0,0,.563.491,6.51,6.51,0,0,1,1.809.751.819.819,0,0,0,.748.052l1.273-.546c.127.112.252.228.373.35s.237.246.35.373l-.546,1.273a.819.819,0,0,0,.052.748,6.51,6.51,0,0,1,.751,1.809.819.819,0,0,0,.491.563l1.285.514c.011.169.016.339.016.51s0,.341-.016.51l-1.285.514a.819.819,0,0,0-.491.563,6.51,6.51,0,0,1-.751,1.809.819.819,0,0,0-.052.748l.546,1.273c-.112.127-.228.252-.35.373s-.246.237-.373.35l-1.273-.546a.819.819,0,0,0-.748.052,6.51,6.51,0,0,1-1.809.751.819.819,0,0,0-.563.491L14.43,18a7.856,7.856,0,0,1-1.02,0ZM1.638,26.208H6.551v3.276H1.638Z" transform="translate(10.646 8.188)" fill="#fff"/>
      <path id="Path_17" data-name="Path 17" d="M27.332,6.731A.819.819,0,1,0,28.355,8.01L32.45,4.734a.819.819,0,0,0,0-1.279L28.355.18a.819.819,0,0,0-1.024,1.279L29.6,3.276H3.276A3.276,3.276,0,0,0,0,6.552V9.008a.819.819,0,0,0,1.638,0V6.552A1.638,1.638,0,0,1,3.276,4.914H29.6Z" transform="translate(3.276 0)" fill="#fff"/>
      <path id="Path_18" data-name="Path 18" d="M9.52,27.2a.819.819,0,0,0-1.151.128L6.551,29.6V3.276A3.276,3.276,0,0,0,3.276,0H.819a.819.819,0,0,0,0,1.638H3.276A1.638,1.638,0,0,1,4.914,3.276V29.6L3.1,27.332a.819.819,0,0,0-1.279,1.024L5.093,32.45a.819.819,0,0,0,1.279,0l3.276-4.095A.819.819,0,0,0,9.52,27.2Z" transform="translate(39.309 3.276)" fill="#fff"/>
      <path id="Path_19" data-name="Path 19" d="M32.758,3.276V.819a.819.819,0,0,0-1.638,0V3.276a1.638,1.638,0,0,1-1.638,1.638H3.154L5.426,3.1A.819.819,0,0,0,4.4,1.817L.307,5.093a.819.819,0,0,0,0,1.279L4.4,9.648A.819.819,0,0,0,5.426,8.369L3.154,6.551H29.482A3.276,3.276,0,0,0,32.758,3.276Z" transform="translate(13.103 39.309)" fill="#fff"/>
      <path id="Path_20" data-name="Path 20" d="M6.552,32.742H9.008a.819.819,0,0,0,0-1.638H6.552a1.638,1.638,0,0,1-1.638-1.638V3.138L6.731,5.41A.819.819,0,1,0,8.01,4.386L4.734.292a.847.847,0,0,0-1.279,0L.18,4.386A.819.819,0,0,0,1.459,5.41L3.276,3.138V29.466A3.276,3.276,0,0,0,6.552,32.742Z" transform="translate(0 13.118)" fill="#fff"/>
    </g>
  </g>
</svg>
