<svg xmlns="http://www.w3.org/2000/svg" width="175.244" height="54.615" viewBox="0 0 175.244 54.615">
  <g id="EASE_logo" data-name="EASE logo" transform="translate(-227.373 -697.056)">
    <text id="title" transform="translate(289.616 738.437)" fill="#fff" font-size="41" font-family="Montserrat-Bold, Montserrat" font-weight="700"><tspan x="0" y="0">EASE</tspan></text>
    <g id="drugs" transform="translate(227.373 697.056)">
      <g id="Group_48" data-name="Group 48" transform="translate(18.033 0)">
        <path id="Path_34" data-name="Path 34" d="M213.786,22.841l6.447,1.788L233.3,28.252l3.531-12.675a12.315,12.315,0,0,0-23.733-6.582L211,16.511c0,4.592,1.218,5.9,2.785,6.33Z" transform="translate(-211.001 0.001)" fill="#eb5468" fill-rule="evenodd"/>
      </g>
      <g id="Group_49" data-name="Group 49" transform="translate(32.425 0.005)">
        <path id="Path_35" data-name="Path 35" d="M347.859,14.08l-3.531,12.675,5.545,1.539L353.4,15.619A12.307,12.307,0,0,0,341.971.047a12.328,12.328,0,0,1,5.888,14.033Z" transform="translate(-341.971 -0.047)" fill="#e5384f" fill-rule="evenodd"/>
      </g>
      <g id="Group_50" data-name="Group 50" transform="translate(23.424 26.714)">
        <path id="Path_36" data-name="Path 36" d="M276.967,244.632l-5.545-1.539-3.531,12.675a12.254,12.254,0,0,1-6.178,7.591,12.133,12.133,0,0,1-.974,1.891,11.533,11.533,0,0,1-.674.963,12.363,12.363,0,0,0,13.371-8.906Z" transform="translate(-260.064 -243.093)" fill="#dddaec" fill-rule="evenodd"/>
      </g>
      <g id="Group_51" data-name="Group 51" transform="translate(0 13.216)">
        <path id="Path_37" data-name="Path 37" d="M57.327,120.266a10.4,10.4,0,0,0-4.711,19.681c3.881,1.726,8.648,1.682,12.273-2.121a10.354,10.354,0,0,0,2.863-7.158q0-.392-.028-.776a10.419,10.419,0,0,0-10.4-9.626Z" transform="translate(-46.906 -120.266)" fill="#ffd772" fill-rule="evenodd"/>
      </g>
      <g id="Group_52" data-name="Group 52" transform="translate(3.225 29.995)">
        <path id="Path_38" data-name="Path 38" d="M86.69,285.26l12.1,2.4a12.308,12.308,0,0,0-7.54-13.834l-.244-.093a12.341,12.341,0,0,0-12.273,2.121,12.075,12.075,0,0,0-2.485,2.85Z" transform="translate(-76.253 -272.946)" fill="#b1e4f9" fill-rule="evenodd"/>
      </g>
      <g id="Group_53" data-name="Group 53" transform="translate(1.326 39.919)">
        <path id="Path_39" data-name="Path 39" d="M81.746,372.207,71.3,367l-12.088-3.741a12.332,12.332,0,0,0,12.088,14.7h.022a12.375,12.375,0,0,0,9.753-4.782A11.532,11.532,0,0,0,81.746,372.207Z" transform="translate(-58.973 -363.254)" fill="#b1e4f9" fill-rule="evenodd"/>
      </g>
      <g id="Group_54" data-name="Group 54" transform="translate(12.475 13.537)">
        <path id="Path_40" data-name="Path 40" d="M160.946,123.186c2.388,2.548,5.454,11.84-.515,16.516a11.89,11.89,0,0,1,1.8-.044,12.314,12.314,0,0,1,3.712.766,10.354,10.354,0,0,0,2.863-7.158q0-.392-.028-.776a10.415,10.415,0,0,0-7.827-9.3Z" transform="translate(-160.431 -123.186)" fill="#fbba58" fill-rule="evenodd"/>
      </g>
      <g id="Group_55" data-name="Group 55" transform="translate(12.981 46.557)">
        <path id="Path_41" data-name="Path 41" d="M176.151,425.975l-5.822-2.315c-.119.4-.247.779-.39,1.159a15.609,15.609,0,0,1-4.9,6.881c.222.012.447.019.668.019h.022a12.375,12.375,0,0,0,9.753-4.782A11.531,11.531,0,0,0,176.151,425.975Z" transform="translate(-165.034 -423.66)" fill="#75cef8" fill-rule="evenodd"/>
      </g>
      <g id="Group_56" data-name="Group 56" transform="translate(15.588 30.147)">
        <path id="Path_42" data-name="Path 42" d="M192.215,286.217l6.719,2.67a12.308,12.308,0,0,0-7.54-13.834l-.244-.093a12.129,12.129,0,0,0-2.395-.629,15.789,15.789,0,0,1,1.149,1.748,18.545,18.545,0,0,1,2.335,9.146C192.24,285.557,192.234,285.887,192.215,286.217Z" transform="translate(-188.756 -274.33)" fill="#75cef8" fill-rule="evenodd"/>
      </g>
      <g id="Group_57" data-name="Group 57" transform="translate(1.561 35.747)">
        <path id="Path_43" data-name="Path 43" d="M85.316,334.253l-13-5.165L62.775,325.3a12.318,12.318,0,0,0-1.021,2,12.629,12.629,0,0,0-.643,2.168l13.855,5.5,8.682,3.448a12.188,12.188,0,0,0,1.024-2.012A12.5,12.5,0,0,0,85.316,334.253Z" transform="translate(-61.111 -325.297)" fill="#75cef8" fill-rule="evenodd"/>
      </g>
      <g id="Group_58" data-name="Group 58" transform="translate(18.276 42.034)">
        <path id="Path_44" data-name="Path 44" d="M213.217,387.025l5.822,2.315a12.189,12.189,0,0,0,1.024-2.012,12.5,12.5,0,0,0,.643-2.156l-6.719-2.67a18.982,18.982,0,0,1-.771,4.523Z" transform="translate(-213.217 -382.502)" fill="#60b7ff" fill-rule="evenodd"/>
      </g>
      <g id="Group_59" data-name="Group 59" transform="translate(12.235 21.778)">
        <path id="Path_45" data-name="Path 45" d="M159.09,199.823h-.022a.824.824,0,1,1,0-1.648h.022a.824.824,0,1,1,0,1.648Z" transform="translate(-158.244 -198.175)" fill="#fbba58"/>
      </g>
      <g id="Group_60" data-name="Group 60" transform="translate(9.925 26.26)">
        <path id="Path_46" data-name="Path 46" d="M138.067,240.613h-.022a.824.824,0,1,1,0-1.648h.022a.824.824,0,1,1,0,1.648Z" transform="translate(-137.221 -238.965)" fill="#fbba58"/>
      </g>
      <g id="Group_61" data-name="Group 61" transform="translate(5.498 22.971)">
        <path id="Path_47" data-name="Path 47" d="M97.784,210.679h-.025a.824.824,0,1,1,0-1.648h.025a.824.824,0,1,1,0,1.648Z" transform="translate(-96.935 -209.031)" fill="#fbba58"/>
      </g>
      <g id="Group_62" data-name="Group 62" transform="translate(8.52 17.616)">
        <path id="Path_48" data-name="Path 48" d="M125.282,161.952h-.022a.824.824,0,1,1,0-1.648h.022a.824.824,0,0,1,0,1.648Z" transform="translate(-124.436 -160.304)" fill="#fbba58"/>
      </g>
    </g>
  </g>
</svg>
