<svg id="email-icon" xmlns="http://www.w3.org/2000/svg" width="64" height="64" viewBox="0 0 64 64">
  <g id="Border">
    <rect id="Shape" width="64" height="64" rx="16" fill="#f9f9f9"/>
  </g>
  <g id="Icon_Email" transform="translate(11.515 23.515)">
    <g id="Group" transform="translate(4 -8)">
      <rect id="Base" width="32.97" height="32.97" fill="none"/>
      <path id="path" d="M0,0H32.97V32.97H0Z" fill="none"/>
      <path id="path-2" data-name="path" d="M27.7,4.08V16.485A4.616,4.616,0,0,1,23.079,21.1H4.616A4.616,4.616,0,0,1,0,16.485V4.08A1.968,1.968,0,0,1,.845,2.464L4.216.118A.659.659,0,0,1,4.97,1.2L1.6,3.547a.65.65,0,0,0-.28.523,1.982,1.982,0,0,1,1.663.161l10.866,6.394L24.714,4.23a1.974,1.974,0,0,1,1.663-.16.65.65,0,0,0-.28-.523L22.822,1.268A.659.659,0,1,1,23.575.185L26.85,2.464A1.968,1.968,0,0,1,27.7,4.08Z" transform="translate(2.748 8.929)" fill="#09325b"/>
      <path id="path-3" data-name="path" d="M9.891,15.826h0L0,9.891V3.3A3.3,3.3,0,0,1,3.3,0H16.485a3.3,3.3,0,0,1,3.3,3.3V9.891L9.891,15.825ZM5.935,9.231a.659.659,0,0,0,0,1.319h7.913a.659.659,0,0,0,0-1.319Zm0-3.956a.659.659,0,1,0,0,1.319h7.913a.659.659,0,0,0,0-1.319Z" transform="translate(6.869 2.748)" fill="#d4d4d4"/>
    </g>
  </g>
</svg>
