<svg width="154" height="68" viewBox="0 0 154 68" fill="none" xmlns="http://www.w3.org/2000/svg">
<path d="M85.3516 0.583675C84.6889 0.771535 84.2662 1.05332 83.6295 1.71605C82.8729 2.50402 81.3439 4.1478 81.0204 4.52352C80.8638 4.70094 80.3837 5.22799 79.9506 5.68199C79.5227 6.1412 78.7713 6.94482 78.2808 7.47188C77.7954 7.99893 77.0544 8.79211 76.637 9.24089C76.2195 9.68967 75.7812 10.1593 75.6716 10.2898C75.5568 10.4202 75.2176 10.7855 74.9149 11.0986C73.9234 12.1423 72.598 13.5773 72.3684 13.8539C72.2431 14.0052 71.8987 14.3705 71.6065 14.6732C71.3195 14.9758 70.8551 15.4664 70.5837 15.769C70.3124 16.0717 69.8636 16.5518 69.5922 16.844C69.3209 17.1362 68.6895 17.8094 68.1885 18.3469C67.6875 18.8792 67.2649 19.3175 67.244 19.3175C67.2127 19.3175 65.6367 17.6842 65.2349 17.2302C64.3739 16.2648 60.4601 12.3719 59.6774 11.6987C59.3121 11.3856 58.8581 11.0777 58.7016 11.0412C58.4302 10.9734 57.5901 11.4952 56.6821 12.2936C55.8524 13.0242 53.7807 15.1533 52.6848 16.3952C52.4448 16.6666 52.0899 17.0527 51.9021 17.2563C51.709 17.4546 51.5107 17.6842 51.4533 17.7572C51.4011 17.8355 51.135 18.1382 50.8688 18.4356C50.0861 19.3018 49.486 19.9802 48.7815 20.8047C48.5623 21.0604 48.2231 21.4361 48.0353 21.6397C47.7326 21.9632 47.4247 22.3128 46.4228 23.4713C46.141 23.7948 45.3583 24.6767 44.7008 25.4021C44.5129 25.6056 44.3042 25.8456 44.2311 25.9343C44.012 26.1953 42.77 27.5572 42.2742 28.0843C42.0133 28.3557 41.695 28.6948 41.5698 28.841C40.547 30.0099 36.915 33.7462 35.9757 34.602C35.6417 34.9047 35.0208 35.4839 34.5929 35.8857C34.165 36.2875 33.7475 36.6737 33.664 36.7415C33.5753 36.8094 33.3665 36.9972 33.1891 37.159C33.0169 37.3207 32.6882 37.6078 32.4586 37.8008C31.6445 38.4844 31.6236 38.5157 31.8115 38.8184C31.9524 39.0532 32.2498 39.2359 32.6203 39.3089C33.2361 39.4342 34.0867 39.1263 35.0938 38.4166C35.2765 38.2861 35.4748 38.1452 35.5374 38.1035C35.5948 38.0618 35.7774 37.9209 35.9444 37.7904C36.1062 37.6599 36.3723 37.4512 36.5341 37.3207C37.2072 36.7885 38.5118 35.6457 39.9208 34.3463C40.9018 33.4435 45.5931 28.7992 46.2141 28.1104C46.3706 27.9382 46.8977 27.3694 47.3882 26.8528C47.8735 26.3309 48.5258 25.6265 48.8285 25.2873C49.1364 24.9429 49.606 24.421 49.8721 24.1236C50.1435 23.8261 50.4096 23.5235 50.4618 23.4452C50.5192 23.3721 50.6705 23.1895 50.801 23.0486C50.9315 22.9025 51.135 22.6677 51.2498 22.5268C51.3646 22.3807 51.5524 22.1615 51.6725 22.031C51.7873 21.9006 51.9282 21.7336 51.9856 21.6605C52.0378 21.5823 52.2047 21.384 52.3456 21.2065C52.4917 21.0343 52.7109 20.763 52.8414 20.596C52.9718 20.4342 53.1806 20.1681 53.311 20.0063C53.4415 19.8393 53.5824 19.6567 53.6241 19.5941C53.6659 19.5367 53.8433 19.3018 54.0155 19.0722C54.3077 18.6913 54.7826 18.0129 54.9026 17.8146C54.9339 17.7677 55.0644 17.5589 55.1948 17.3606C55.7428 16.5205 56.0559 15.9204 56.2333 15.3516C56.2855 15.195 56.3585 15.0593 56.4003 15.0489C56.4629 15.0385 56.489 15.1846 56.5412 15.8056C56.7029 17.7363 56.8282 18.5556 57.0369 19.0618C57.1935 19.4375 57.7257 19.7715 58.3624 19.8915C58.6129 19.9385 58.9834 19.8654 59.4687 19.6828C60.3923 19.3279 60.5906 19.3332 60.7941 19.7245C60.9768 20.0846 60.9924 21.05 60.8202 21.744C60.7889 21.8849 60.601 22.3076 60.4027 22.6833C60.2097 23.0538 59.9905 23.5496 59.9174 23.774C59.6565 24.5619 59.6826 25.616 59.9905 26.858C60.1418 27.4738 60.3401 28.1417 60.4497 28.3974C60.481 28.4705 60.5697 28.6896 60.648 28.8931C60.9037 29.582 61.7178 31.2831 62.0674 31.878C62.1561 32.0294 62.2605 32.2642 62.3022 32.4051C62.5683 33.287 63.2572 34.195 63.9564 34.5759C64.4626 34.8525 64.6035 34.8681 66.957 34.9203C70.1923 34.9934 71.6222 35.1447 74.0539 35.6561C75.7342 36.0109 77.9207 36.7102 79.3401 37.3521C79.4914 37.4199 79.6271 37.4773 79.6427 37.4773C79.6897 37.4773 81.6935 38.4949 82.0797 38.714C82.972 39.2202 83.8331 39.7734 85.0124 40.6031L85.3255 40.8223H85.9517C87.1467 40.8327 87.2667 40.6083 86.4318 39.9456C85.8682 39.4968 84.6315 38.2287 82.0849 35.4891C81.5944 34.9621 80.8795 34.1897 80.4933 33.7827C80.1072 33.3705 79.6636 32.8799 79.5071 32.6973C79.1992 32.3425 77.952 30.9805 77.1849 30.1664C76.9292 29.8951 76.6213 29.5611 76.5065 29.4254C76.1882 29.0549 74.9462 27.6981 74.4192 27.145C74.1635 26.8684 73.8817 26.5658 73.793 26.4666C73.5947 26.2318 72.1544 24.6559 71.5491 24.014C70.4637 22.8607 69.6705 21.9632 69.6548 21.8745C69.6392 21.791 70.1088 21.1335 70.6255 20.5177C70.709 20.4186 71.0429 19.9802 71.3665 19.5523C71.69 19.1192 72.024 18.6861 72.1022 18.5869C72.5354 18.0442 72.7545 17.7624 72.8015 17.6894C72.8485 17.6163 73.0833 17.3084 73.8556 16.317C74.3253 15.7168 74.8419 15.0437 75.802 13.7808C76.0473 13.4625 76.35 13.0659 76.4804 12.9042C76.6944 12.6432 77.2841 11.8762 77.6285 11.4169C77.7015 11.3178 77.8998 11.0621 78.072 10.8377C78.2442 10.6185 78.4321 10.3785 78.4895 10.3002C78.5886 10.1698 78.8391 9.841 79.194 9.37657C79.2827 9.26177 79.4653 9.02694 79.601 8.85473C79.7367 8.68253 79.8828 8.48945 79.9245 8.43205C79.9663 8.36943 80.1541 8.12417 80.342 7.88412C80.5299 7.64408 80.7282 7.38316 80.7856 7.30489C80.8795 7.17965 81.0099 7.01266 81.7092 6.10989C81.8344 5.95334 82.111 5.58806 82.325 5.30105C83.0816 4.29391 83.6295 3.87123 84.1723 3.87123C84.3445 3.87123 84.4906 3.90775 84.5845 3.97037C85.0698 4.28869 85.3464 5.32714 85.2733 6.55867C85.2159 7.57102 84.9759 8.42683 84.6262 8.87039C84.1462 9.47572 83.6922 10.4568 83.4834 11.3334C83.1756 12.6224 83.2382 13.5825 83.6974 14.5166C83.8905 14.9184 83.9896 15.0385 84.7254 15.769C85.4977 16.5413 85.5447 16.604 85.8056 17.1258C86.2283 17.9712 86.4944 18.8061 86.6197 19.6567C86.6875 20.1263 86.6875 20.1263 86.5101 20.7786C86.3379 21.3996 86.3274 21.4727 86.3274 22.3441C86.3222 23.0277 86.3431 23.3565 86.4109 23.6487C86.6092 24.5463 87.0632 25.6421 87.512 26.3048C87.6164 26.4562 87.6998 26.5919 87.6998 26.6075C87.6998 26.6179 87.8355 26.8058 88.0025 27.025C88.1643 27.2441 88.3574 27.5051 88.4252 27.6094C88.587 27.8495 90.429 29.6863 90.716 29.8898C90.8308 29.9733 91.1126 30.1821 91.337 30.3543C91.5614 30.5265 91.8432 30.7352 91.9684 30.8187C92.3755 31.0901 92.4172 31.3144 92.2189 32.1911C92.1198 32.6451 92.1093 32.7495 92.1615 32.9217C92.1981 33.0313 92.3389 33.4696 92.4746 33.9027C92.6103 34.3306 92.7616 34.8159 92.8138 34.9725C92.866 35.129 93.0173 35.6039 93.153 36.0266C93.4557 37.0024 93.487 37.0285 94.2802 37.2268C95.0577 37.4199 95.6161 37.6547 95.8405 37.8687C96.1379 38.1557 96.785 38.3383 98.0113 38.4688C98.6688 38.5418 98.8514 38.4949 98.9975 38.2079C99.1123 37.9835 99.0967 37.9052 98.841 37.3521C98.6427 36.9294 98.6009 36.7937 98.5905 36.491C98.5749 35.9327 98.6584 35.8335 99.2846 35.7031C99.8325 35.583 101.998 35.6874 103.12 35.8805C105.119 36.2301 106.308 36.6163 107.159 37.1851C107.634 37.5086 108.469 37.8895 108.991 38.0252C109.909 38.26 110.587 38.3122 112.69 38.3122C114.757 38.3122 114.971 38.3331 115.675 38.5888C115.983 38.7036 116.568 38.9906 116.839 39.1628C117.523 39.5959 118.232 40.1387 118.979 40.8066C119.344 41.1354 119.662 41.3389 119.813 41.3389C119.949 41.3389 120.194 41.0884 120.304 40.8327C120.455 40.4778 120.591 39.7055 120.565 39.3246C120.544 38.9802 120.534 38.9645 119.714 38.0565C119.542 37.8635 119.109 37.3729 118.749 36.9607C118.389 36.5484 117.945 36.0423 117.757 35.8387C117.032 35.0351 116.369 34.2785 116.202 34.0697C116.103 33.9497 115.905 33.7201 115.754 33.5635C115.602 33.407 115.331 33.0991 115.148 32.8852C114.966 32.6712 114.684 32.3529 114.522 32.1755C114.366 32.0033 113.943 31.5232 113.583 31.1109C113.223 30.6987 112.79 30.2082 112.617 30.0151C112.445 29.8272 112.023 29.3471 111.678 28.9505C111.334 28.5487 110.89 28.0478 110.687 27.8286C110.259 27.3589 109.429 26.4196 109.095 26.0231C108.855 25.736 108.109 24.8907 107.556 24.2749C107.383 24.0871 107.185 23.8627 107.117 23.774C107.044 23.6905 106.783 23.3878 106.528 23.1008C106.272 22.8138 105.865 22.3546 105.625 22.0832C105.385 21.8119 104.936 21.3005 104.623 20.9508C104.315 20.6012 103.871 20.1002 103.642 19.8341C103.412 19.5732 103.016 19.1192 102.755 18.8374C102.499 18.5504 102.254 18.2634 102.212 18.206C102.17 18.1434 102.003 17.9503 101.842 17.7781C101.68 17.6059 101.419 17.3137 101.268 17.1258C101.111 16.9379 100.834 16.6196 100.641 16.4161C100.453 16.2126 100.046 15.7482 99.7281 15.3777C99.415 15.0072 99.0236 14.5636 98.8671 14.3914C98.3713 13.8487 97.4894 12.852 97.3277 12.6432C97.2442 12.5337 97.0146 12.2675 96.8267 12.0588C95.95 11.0882 95.6004 10.6864 95.5065 10.5559C95.4491 10.4829 95.2821 10.2898 95.136 10.1332C94.8751 9.85144 94.1758 9.05825 93.7009 8.48945C93.5705 8.33812 93.2939 8.01458 93.08 7.77454C92.0572 6.61607 89.7454 3.9495 88.9679 3.03107C88.7905 2.81712 88.4617 2.43097 88.2373 2.17005C88.0129 1.90391 87.6998 1.52819 87.5433 1.3299C87.0476 0.703696 86.6457 0.47409 86.0404 0.484526C85.8473 0.484526 85.5395 0.531491 85.3516 0.583675ZM98.1052 19.2966C98.1522 19.3384 98.1887 19.4062 98.1887 19.4427C98.1887 19.4845 98.3348 19.7245 98.5175 19.9802C98.9245 20.5647 98.9923 20.6899 99.0706 21.0135C99.2689 21.8223 99.3472 21.9893 99.7229 22.3859C99.869 22.5424 100.26 22.9025 100.589 23.1791C100.918 23.4609 101.325 23.847 101.492 24.0349C101.842 24.4315 102.463 25.2977 102.911 26.0178C103.527 27.0093 104.096 27.8495 104.388 28.2095C105.186 29.1906 106.068 29.8637 106.924 30.1455C107.258 30.2603 107.352 30.3856 107.3 30.6674C107.253 30.8918 107.023 31.1944 106.825 31.2884C106.595 31.3979 106.126 31.3927 105.823 31.2779C105.291 31.0744 104.059 30.1716 101.189 27.8808C98.8201 25.9865 99.0602 26.1848 98.6792 25.8248C97.9643 25.1516 97.813 24.5202 97.7451 21.9788C97.7295 21.3631 97.7034 20.5021 97.6825 20.0689C97.6512 19.3175 97.6564 19.2757 97.7504 19.2497C97.9382 19.2027 98.0269 19.2131 98.1052 19.2966Z" fill="#1C3764"/>
<path d="M49.1885 35.3749C47.6282 35.6463 43.944 36.5021 43.3074 36.7369C43.0152 36.8465 42.6916 37.0761 42.6134 37.2222C42.5194 37.3944 42.556 37.671 42.6864 37.8275L42.8117 37.9736L43.1717 37.7806C44.0327 37.3213 45.0608 37.2483 47.2577 37.504C48.5675 37.6553 48.6405 37.6553 49.4233 37.5249C49.8512 37.4518 50.3678 37.3996 50.6757 37.3996C51.1401 37.3996 51.2288 37.4153 51.5054 37.5457C51.8498 37.7127 52.1681 37.7753 52.7108 37.8014C53.144 37.8223 53.1909 37.744 52.8883 37.5301C52.7839 37.457 52.5178 37.2587 52.2934 37.0865C52.0742 36.9143 51.8289 36.7265 51.7454 36.669C51.6672 36.6116 51.4167 36.4238 51.1923 36.2516C50.2269 35.521 49.6894 35.2862 49.1885 35.3749Z" fill="#1C3764"/>
<path d="M66.0106 52.0735C65.075 52.1718 64.067 52.5853 63.333 53.1797C62.3146 53.9965 61.7512 55.2939 61.8442 56.6224C61.9218 57.7699 62.2061 58.4523 62.8832 59.1346C63.519 59.7704 64.1962 60.1064 65.8297 60.5768C67.0858 60.9386 67.6854 61.2178 67.9955 61.5848C68.2023 61.8329 68.3057 62.2568 68.2643 62.6858C68.192 63.4663 67.856 63.8644 67.0754 64.0918C66.6412 64.221 65.597 64.1745 65.1577 64.0143C64.77 63.8747 64.2996 63.6421 63.9946 63.4405C63.8654 63.3578 63.6173 63.2182 63.4363 63.1303C63.1675 62.9959 63.0693 62.9701 62.8729 62.9959C62.7437 63.0063 62.5783 63.0631 62.5007 63.12C62.2991 63.2699 61.2963 64.8103 61.3377 64.9137C61.3532 64.9447 61.4927 65.0739 61.6478 65.198C62.8005 66.1233 64.6511 66.7539 66.2173 66.7539C67.339 66.7539 68.5331 66.4386 69.2361 65.9527C69.3809 65.8545 69.5566 65.7304 69.629 65.6839C70.1562 65.3324 70.7817 64.4743 71.0298 63.7713C71.2366 63.182 71.2831 62.9442 71.3141 62.3084C71.3658 61.3005 71.2366 60.7112 70.8127 60.003C70.2803 59.1243 69.4222 58.597 67.4114 57.9302C66.0623 57.4856 65.5919 57.2789 65.2921 57.0101C64.9767 56.7258 64.9251 56.5914 64.9251 56.0951C64.9251 55.6196 65.0129 55.3663 65.2662 55.0923C65.7521 54.5651 66.8687 54.4513 68.0162 54.808C68.1144 54.8339 68.4504 54.9993 68.7709 55.1699C69.4791 55.542 69.6445 55.5834 69.9236 55.4438C70.0373 55.387 70.1511 55.3094 70.1821 55.2681C70.2441 55.1854 70.4871 54.7512 70.8489 54.0585L71.128 53.5364L71.0091 53.433C70.6525 53.1022 69.691 52.5956 68.9828 52.3682C68.1764 52.1046 66.9203 51.9805 66.0106 52.0735Z" fill="#1C3764"/>
<path d="M147.502 52.0749C146.639 52.1576 145.869 52.4316 145.119 52.9278C144.83 53.1191 144.106 53.8221 143.998 54.0185C143.476 54.9438 143.341 55.3573 143.305 56.1585C143.264 56.9959 143.372 57.58 143.687 58.221C144.241 59.353 145.104 59.9423 147.011 60.4954C148.541 60.94 148.893 61.0899 149.301 61.4776C149.632 61.7929 149.71 61.9841 149.715 62.4907C149.715 63.0231 149.606 63.3643 149.337 63.6434C149.1 63.8915 148.903 64.0053 148.536 64.0983C148.185 64.1965 147.265 64.1914 146.882 64.0931C146.551 64.0104 145.672 63.5866 145.078 63.2299C144.484 62.8732 144.101 62.9042 143.755 63.3385C143.574 63.5607 143.227 64.0931 142.953 64.5739L142.762 64.8995L143.005 65.1115C143.326 65.3906 143.538 65.5353 144.091 65.83C146.112 66.9103 148.546 67.0499 150.268 66.1866C150.836 65.9023 151.069 65.7318 151.514 65.2717C152.093 64.6773 152.475 63.9794 152.687 63.1369C152.796 62.6975 152.806 61.3638 152.702 60.9917C152.563 60.4851 152.222 59.8751 151.87 59.4978C151.24 58.8258 150.661 58.5311 148.738 57.8902C147.507 57.4818 147.29 57.3888 146.882 57.0993C146.479 56.815 146.35 56.5824 146.344 56.1275C146.334 55.471 146.706 54.9283 147.296 54.737C147.538 54.6543 147.75 54.6336 148.278 54.6336C149.084 54.6336 149.218 54.6698 150.247 55.1867C150.898 55.5124 150.997 55.5486 151.172 55.5175C151.436 55.4658 151.71 55.1867 151.963 54.7112C152.077 54.4992 152.258 54.1581 152.366 53.9513L152.563 53.5791L152.439 53.4395C152.201 53.1863 151.441 52.7469 150.774 52.4833C150.309 52.3023 149.539 52.1318 148.924 52.0749C148.273 52.018 148.117 52.018 147.502 52.0749Z" fill="#1C3764"/>
<path d="M0.672607 59.3887V66.5996H5.29899H9.92537V65.359V64.1184H6.99447C5.37653 64.1184 4.02738 64.0977 3.9912 64.0771C3.94467 64.0409 3.92917 63.6532 3.9395 62.3041L3.95501 60.5776L6.22943 60.5517L8.50386 60.5259L8.50903 59.5179C8.51419 58.9648 8.50386 58.4324 8.49352 58.3445L8.46767 58.1739L6.20876 58.1636L3.95501 58.1481V56.4422V54.7364L6.92727 54.7106L9.89952 54.6847V53.4441V52.2035L5.28865 52.188L0.672607 52.1777V59.3887Z" fill="#1C3764"/>
<path d="M10.7835 52.2914C10.8249 52.4207 11.6778 54.5452 11.838 54.9173C11.8897 55.0466 12.1843 55.7754 12.4893 56.5456C12.7891 57.3107 13.0579 57.962 13.0838 57.993C13.1096 58.0188 13.1303 58.0705 13.1303 58.1119C13.1303 58.1532 13.1613 58.2566 13.2027 58.3445C13.244 58.4375 13.3939 58.8097 13.5438 59.1819C13.6886 59.5489 13.8902 60.04 13.9832 60.2674C14.0762 60.4949 14.252 60.9342 14.3709 61.2495C14.4949 61.5597 14.6965 62.0714 14.8258 62.3868C14.9498 62.6969 15.3582 63.7101 15.7252 64.6353C16.0974 65.5606 16.4334 66.3773 16.4696 66.4549L16.5471 66.5996H18.0151H19.4883L19.571 66.4032C19.6176 66.2998 19.6744 66.1551 19.6951 66.0827C19.7209 66.0103 19.8347 65.7209 19.9536 65.4366C20.0724 65.1522 20.1965 64.8369 20.2327 64.7387C20.274 64.6405 20.4498 64.196 20.6255 63.7566C20.8013 63.3172 20.9926 62.852 21.0391 62.7228C21.1786 62.3609 21.556 61.4201 21.6284 61.2495C21.6697 61.1617 21.7834 60.8722 21.892 60.6034C21.9954 60.3346 22.1039 60.0658 22.1298 60.009C22.1815 59.8901 23.6443 56.251 23.7787 55.8995C23.8304 55.7703 24.0113 55.305 24.1923 54.8657C24.368 54.4263 24.5541 53.9611 24.6058 53.8318C24.797 53.3356 25.133 52.5085 25.1796 52.4258C25.314 52.1777 25.3191 52.1777 23.8718 52.1777C23.0602 52.1777 22.4296 52.1984 22.3107 52.2346C22.2021 52.2656 22.0005 52.3896 21.8661 52.5189C21.5973 52.767 21.6542 52.6378 20.6514 55.4343C20.4653 55.9615 20.2689 56.5043 20.212 56.649C20.1603 56.7886 19.9742 57.3158 19.7985 57.8121C19.6279 58.3083 19.4573 58.7735 19.4263 58.8459C19.4005 58.9183 19.3074 59.1612 19.2299 59.3887C19.1523 59.6161 18.9404 60.2105 18.7647 60.7068C18.5889 61.203 18.3718 61.9009 18.2788 62.2575C18.1082 62.9088 18.0151 63.0484 17.9324 62.7744C17.6481 61.782 17.5499 61.4977 16.7228 59.2077C16.5419 58.7115 16.2783 57.9671 16.1284 57.5536C15.9837 57.1401 15.8337 56.7214 15.7924 56.6232C15.7562 56.525 15.627 56.1734 15.5081 55.8478C15.3892 55.5221 15.2186 55.0414 15.1204 54.7881C15.0274 54.5297 14.8258 53.9714 14.6707 53.5475C14.4536 52.9272 14.3554 52.7256 14.1951 52.555C13.8798 52.2087 13.7144 52.1777 12.112 52.1777H10.7473L10.7835 52.2914Z" fill="#1C3764"/>
<path d="M26.6063 52.2139C26.5856 52.2294 26.5701 55.4756 26.5701 59.4248V66.5996H31.1964H35.8228V65.359V64.1184L32.8661 64.1081L29.9042 64.0926V62.3351V60.5776L32.1527 60.5517L34.4013 60.5259L34.4168 59.3525L34.4272 58.1739L32.1682 58.1636L29.9042 58.1481L29.8887 56.4267L29.8783 54.7106H32.8506H35.8228V53.4441V52.1777H31.2326C28.7049 52.1777 26.6218 52.1932 26.6063 52.2139Z" fill="#1C3764"/>
<path d="M37.8179 52.2552C37.7765 52.3638 37.7765 66.4084 37.8179 66.5169C37.8437 66.5893 38.0402 66.5996 39.472 66.5996H41.0951L41.1055 63.922L41.121 61.2495H41.7413C42.6717 61.2495 42.7854 61.3219 43.2765 62.2058C43.5091 62.6245 43.9898 63.4723 44.0364 63.5498C44.0622 63.5912 44.2793 63.9633 44.5119 64.3769C44.7445 64.7904 44.972 65.1833 45.0185 65.2556C45.0598 65.328 45.1374 65.4521 45.1839 65.5399C45.5664 66.2378 45.768 66.4342 46.1971 66.5427C46.4503 66.6099 49.5208 66.6203 49.5208 66.5583C49.5208 66.5376 49.4071 66.3412 49.2727 66.1292C49.1331 65.9173 49.0091 65.7105 48.9884 65.6692C48.9677 65.6278 48.885 65.4882 48.7971 65.359C48.7144 65.2298 48.5645 64.9868 48.4611 64.8163C48.3629 64.6457 48.2544 64.4699 48.2285 64.4286C48.0114 64.0771 47.1533 62.6762 47.1275 62.6142C47.1068 62.5728 47.0241 62.4384 46.9362 62.3092C46.8535 62.18 46.7088 61.937 46.6054 61.7665C46.4142 61.4305 45.8766 60.8774 45.6026 60.7378C45.3803 60.6241 45.3958 60.5362 45.6595 60.4173C46.1971 60.1795 46.6209 59.8849 47.0396 59.4662C47.8253 58.6805 48.213 57.8121 48.2647 56.7162C48.3267 55.4498 48.0063 54.4676 47.2877 53.7233C46.6313 53.0461 45.7577 52.6274 44.4292 52.3535L43.7572 52.2139L40.8056 52.188C38.0712 52.1674 37.8489 52.1725 37.8179 52.2552ZM43.5401 54.7571C44.0312 54.8863 44.2018 54.9742 44.5067 55.2585C44.9875 55.7082 45.1787 56.4784 45.0082 57.2796C44.9099 57.7345 44.8169 57.9413 44.5739 58.2256C44.0777 58.8045 43.2868 59.0268 41.8446 58.9906L41.1727 58.9751L41.1571 56.8144L41.1468 54.6589H42.1445C42.9663 54.6589 43.2145 54.6744 43.5401 54.7571Z" fill="#1C3764"/>
<path d="M51.108 52.2139C51.0873 52.2294 51.0718 55.4756 51.0718 59.4248V66.5996H55.6982H60.3245V65.359V64.1184L57.3678 64.1081L54.4059 64.0926L54.3904 62.3247L54.38 60.5517L56.6389 60.5414L58.903 60.5259L58.9185 59.3473L58.9289 58.1739H56.6544H54.38V56.4422V54.7106L57.3419 54.7002L60.2987 54.6847V53.4441V52.2035L55.7188 52.188C53.2015 52.1829 51.1235 52.1932 51.108 52.2139Z" fill="#1C3764"/>
<path d="M72.146 52.2139C72.1254 52.2294 72.1099 52.8135 72.1099 53.5062V54.7623L74.1413 54.7726L76.1676 54.7881L76.1831 60.6913L76.1935 66.5996H77.8218C78.716 66.5996 79.4552 66.5944 79.4604 66.5841C79.4707 66.5789 79.4862 63.922 79.5017 60.6809L79.5276 54.7881L81.5332 54.7726L83.5337 54.7623L83.5233 53.4803L83.5078 52.2035L77.8424 52.188C74.7306 52.1829 72.1616 52.1932 72.146 52.2139Z" fill="#1C3764"/>
<path d="M107.881 59.3887V66.5996L109.525 66.5893L111.163 66.5738V59.3887V52.2035L109.525 52.188L107.881 52.1777V59.3887Z" fill="#1C3764"/>
<path d="M113.98 59.3835V66.5996H115.407H116.829L116.813 62.0508C116.803 58.8356 116.813 57.5019 116.855 57.5019C116.886 57.5019 117.056 57.6932 117.242 57.9206C117.423 58.1532 117.656 58.4375 117.754 58.5564C117.852 58.6753 118.074 58.9544 118.245 59.1767C118.416 59.399 118.752 59.8229 118.995 60.1227C119.237 60.4225 119.491 60.7481 119.563 60.8412C119.636 60.9342 119.832 61.1875 120.003 61.4046C120.173 61.6217 120.359 61.8647 120.416 61.937C120.473 62.0146 120.649 62.2369 120.804 62.4229C120.959 62.609 121.176 62.8778 121.284 63.0174C121.393 63.1518 121.589 63.4051 121.724 63.5757C121.853 63.7462 121.982 63.9065 122.003 63.9375C122.024 63.9633 122.106 64.0719 122.189 64.1701C122.365 64.382 122.882 65.0334 123.466 65.7725C123.735 66.1137 123.957 66.3463 124.112 66.4342C124.339 66.5686 124.365 66.5738 125.399 66.5893C126.237 66.6048 126.459 66.5944 126.495 66.5376C126.521 66.5014 126.541 63.281 126.541 59.3835C126.541 53.4338 126.531 52.2863 126.469 52.2346C126.423 52.1932 125.999 52.1777 125.037 52.188L123.673 52.2036V56.7679C123.673 59.2749 123.662 61.3271 123.647 61.3271C123.58 61.3219 123.233 60.9291 122.768 60.3139C122.696 60.2209 122.499 59.9676 122.329 59.7505C122.158 59.5334 121.951 59.2646 121.863 59.156C121.781 59.0475 121.419 58.5926 121.062 58.1481C120.706 57.7087 120.359 57.2641 120.287 57.1711C120.059 56.8713 118.814 55.2999 118.478 54.8915C118.379 54.7674 118.167 54.5038 118.012 54.2971C117.676 53.8525 117.418 53.5269 117.025 53.0616C116.865 52.8755 116.71 52.6688 116.679 52.6119C116.648 52.5499 116.508 52.431 116.374 52.3535L116.126 52.2036L115.056 52.188L113.98 52.1674V59.3835Z" fill="#1C3764"/>
<path d="M129.022 59.3891V66.6104L132.397 66.5845C135.582 66.5638 135.794 66.5587 136.279 66.4553C138.363 66.0056 139.908 64.9976 140.932 63.4055C141.542 62.4647 141.852 61.5653 142.028 60.2678C142.183 59.0634 142.002 57.6936 141.521 56.5202C141.304 55.9826 141.175 55.75 140.684 55.0211C140.43 54.6386 139.562 53.8167 139.076 53.4911C138.513 53.1189 138.492 53.1086 137.897 52.8604C137.163 52.5503 137.003 52.5038 136.285 52.3539L135.613 52.2091L132.32 52.1884L129.022 52.1678V59.3891ZM135.804 54.8557C137.66 55.3623 138.688 56.9751 138.688 59.3891C138.688 60.7382 138.388 61.8134 137.789 62.6043C137.303 63.2452 136.683 63.6743 135.871 63.9224C135.54 64.0258 135.365 64.0361 133.922 64.0568L132.33 64.0775V59.4252C132.33 56.8717 132.346 54.7627 132.372 54.742C132.392 54.7213 133.085 54.711 133.907 54.7265C135.22 54.742 135.452 54.7627 135.804 54.8557Z" fill="#1C3764"/>
<path d="M88.9097 59.4145V66.5996H90.3312H91.7579L91.7424 61.8698C91.732 57.9361 91.7372 57.1401 91.794 57.1504C91.8716 57.1659 92.2334 57.8276 93.0502 59.4403C93.3396 60.009 93.5929 60.4949 93.6136 60.5259C93.6343 60.5517 93.8514 60.9601 94.0891 61.4305C95.3659 63.9168 95.7123 64.563 95.8467 64.7129C95.9242 64.8059 96.1103 64.9351 96.2602 64.9972C96.4928 65.0954 96.5962 65.1109 97.0717 65.0902C97.4543 65.0747 97.6714 65.0437 97.7851 64.9817C97.9712 64.8835 98.3175 64.5475 98.3175 64.4648C98.3175 64.4337 98.3485 64.3717 98.3899 64.3304C98.4261 64.2838 98.7672 63.6429 99.1394 62.9037C99.5116 62.1645 100.013 61.1772 100.261 60.7068C100.504 60.2364 101.021 59.2439 101.403 58.4944C101.936 57.4554 102.122 57.1401 102.189 57.1556C102.236 57.1659 102.262 57.2073 102.246 57.2486C102.236 57.29 102.215 59.4093 102.205 61.9577L102.184 66.5996H103.637H105.089V59.4145V52.2294H103.528C102.07 52.2294 101.951 52.2346 101.796 52.3276C101.672 52.4051 101.543 52.6067 101.223 53.2477C101 53.6974 100.649 54.3798 100.452 54.7623C99.7132 56.1735 97.1803 61.2495 97.1803 61.3167C97.1803 61.4046 97.0252 61.6372 96.9684 61.6372C96.9425 61.6372 96.896 61.5752 96.8701 61.4925C96.7668 61.2237 96.7254 61.1358 95.8208 59.3111C93.8876 55.4188 92.4143 52.5602 92.2644 52.4103L92.1145 52.2552L90.5121 52.2397L88.9097 52.2242V59.4145Z" fill="#1C3764"/>
</svg>
