<svg xmlns="http://www.w3.org/2000/svg" width="221.731" height="55.836" viewBox="0 0 221.731 55.836">
  <g id="Group_85" data-name="Group 85" transform="translate(-66 -291.503)">
    <text id="title" transform="translate(148.731 336.339)" fill="#fff" font-size="42" font-family="Montserrat-Bold, Montserrat" font-weight="700"><tspan x="0" y="0">iClaim</tspan></text>
    <path id="Icon_metro-heartbeat" data-name="Icon metro-heartbeat" d="M46.28,35H56.7a3.467,3.467,0,0,1-.341.359q-.171.154-.307.256l-.1.137L34.67,56.244a2.144,2.144,0,0,1-3.005,0L10.357,35.687A3.224,3.224,0,0,1,9.639,35h12.6a2.152,2.152,0,0,0,1.349-.461,2.05,2.05,0,0,0,.768-1.178l2.39-9.6,6.488,22.777a2.177,2.177,0,0,0,.785,1.127,2.133,2.133,0,0,0,1.332.444,2.084,2.084,0,0,0,1.3-.444,2.176,2.176,0,0,0,.785-1.127l4.986-16.562,1.912,3.825A2.046,2.046,0,0,0,46.28,35ZM63.764,20.388a18.564,18.564,0,0,1-3.517,10.244h-12.6l-3.791-7.547a2.06,2.06,0,0,0-.871-.922,2.174,2.174,0,0,0-3.159,1.3L35.421,38.145,28.728,14.72a2.144,2.144,0,0,0-.8-1.127,2.205,2.205,0,0,0-1.349-.444,2.134,2.134,0,0,0-2.083,1.639L20.533,30.633H6.088A18.563,18.563,0,0,1,2.571,20.388q0-7.513,4.337-11.747T18.894,4.407a13.611,13.611,0,0,1,4.32.734,17.485,17.485,0,0,1,4.1,1.981q1.9,1.246,3.261,2.339a31.494,31.494,0,0,1,2.6,2.322,31.453,31.453,0,0,1,2.6-2.322q1.366-1.093,3.261-2.339a17.482,17.482,0,0,1,4.1-1.981,13.611,13.611,0,0,1,4.32-.734q7.649,0,11.986,4.234t4.337,11.747Z" transform="translate(63.43 287.096)" fill="#fff"/>
  </g>
</svg>
