<svg xmlns="http://www.w3.org/2000/svg" width="37.779" height="37.779" viewBox="0 0 37.779 37.779">
  <g id="paper-plane" transform="matrix(0.998, -0.07, 0.07, 0.998, 2.267, 10.512)">
    <g id="automated-process" transform="translate(-1.528 -10.645) rotate(4)">
      <path id="Path_15" data-name="Path 15" d="M7.556,3.778A3.778,3.778,0,1,0,3.778,7.556,3.778,3.778,0,0,0,7.556,3.778Zm-6.3,0A2.519,2.519,0,1,1,3.778,6.3,2.519,2.519,0,0,1,1.259,3.778Z" transform="translate(15.112 10.075)" fill="#831027"/>
      <path id="Path_16" data-name="Path 16" d="M1.259,23.928H5.037A1.259,1.259,0,0,0,6.3,22.669V20.15a1.259,1.259,0,0,0-1.259-1.259H3.778v-.63a.63.63,0,0,1,.63-.63h5.667v1.259H8.815A1.259,1.259,0,0,0,7.556,20.15v2.519a1.259,1.259,0,0,0,1.259,1.259h3.778a1.259,1.259,0,0,0,1.259-1.259V20.15a1.259,1.259,0,0,0-1.259-1.259H11.334V17.631H17a.63.63,0,0,1,.63.63v.63H16.371a1.259,1.259,0,0,0-1.259,1.259v2.519a1.259,1.259,0,0,0,1.259,1.259h3.778a1.259,1.259,0,0,0,1.259-1.259V20.15a1.259,1.259,0,0,0-1.259-1.259H18.889v-.63A1.889,1.889,0,0,0,17,16.372H11.334V15.085h.019a1.026,1.026,0,0,0,.863-.649l.331-.826a6.262,6.262,0,0,0,1.133-.472l.819.352a1.028,1.028,0,0,0,1.066-.152c.165-.138.326-.286.479-.441s.3-.315.441-.479a1.029,1.029,0,0,0,.152-1.07l-.351-.819A6.262,6.262,0,0,0,16.755,9.4l.826-.331a1.025,1.025,0,0,0,.648-.861c.021-.214.03-.431.03-.649s-.009-.434-.028-.649a1.026,1.026,0,0,0-.648-.863l-.826-.331a6.261,6.261,0,0,0-.472-1.133l.352-.819A1.029,1.029,0,0,0,16.486,2.7c-.138-.165-.286-.326-.441-.479s-.315-.3-.479-.441a1.028,1.028,0,0,0-1.07-.152l-.819.351a6.262,6.262,0,0,0-1.133-.472L12.215.678A1.026,1.026,0,0,0,11.354.03a7.09,7.09,0,0,0-1.3,0,1.026,1.026,0,0,0-.863.648L8.862,1.5a6.262,6.262,0,0,0-1.133.472L6.91,1.623a1.029,1.029,0,0,0-1.066.152c-.165.138-.326.286-.479.441s-.3.315-.441.479a1.029,1.029,0,0,0-.152,1.07l.351.819a6.262,6.262,0,0,0-.472,1.133l-.826.331a1.026,1.026,0,0,0-.648.861c-.021.214-.03.431-.03.649s.009.434.028.649a1.026,1.026,0,0,0,.648.863l.826.331a6.262,6.262,0,0,0,.472,1.133l-.352.819a1.029,1.029,0,0,0,.152,1.066c.138.165.286.326.441.479s.315.3.479.441a1.028,1.028,0,0,0,1.07.152l.819-.351a6.262,6.262,0,0,0,1.133.472l.331.826a1.026,1.026,0,0,0,.861.648h.019v1.29H4.408a1.889,1.889,0,0,0-1.889,1.889v.63H1.259A1.259,1.259,0,0,0,0,20.15v2.519A1.259,1.259,0,0,0,1.259,23.928Zm11.334-1.259H8.815V20.15h3.778Zm7.556,0H16.371V20.15h3.778ZM9.916,12.853a.63.63,0,0,0-.433-.378A5.006,5.006,0,0,1,8.092,11.9a.63.63,0,0,0-.575-.04l-.979.42c-.1-.086-.194-.176-.286-.269s-.183-.189-.269-.286l.42-.979a.63.63,0,0,0-.04-.575,5.006,5.006,0,0,1-.577-1.391.63.63,0,0,0-.378-.433l-.988-.4c-.009-.13-.013-.261-.013-.392s0-.262.013-.392l.988-.4a.63.63,0,0,0,.378-.433,5.006,5.006,0,0,1,.577-1.391A.63.63,0,0,0,6.4,4.37l-.421-.978c.086-.1.176-.194.269-.286s.189-.183.286-.269l.979.42a.63.63,0,0,0,.575-.04,5.006,5.006,0,0,1,1.391-.577.63.63,0,0,0,.433-.378l.4-.988a5.724,5.724,0,0,1,.785,0l.4.988a.63.63,0,0,0,.433.378,5.006,5.006,0,0,1,1.391.577.63.63,0,0,0,.575.04l.979-.42c.1.086.194.176.286.269s.183.189.269.286L15,4.371a.63.63,0,0,0,.04.575,5.006,5.006,0,0,1,.577,1.391A.63.63,0,0,0,16,6.769l.988.4c.009.13.013.261.013.392s0,.262-.013.392l-.988.4a.63.63,0,0,0-.378.433,5.006,5.006,0,0,1-.577,1.391.63.63,0,0,0-.04.575l.42.979c-.086.1-.176.194-.269.286s-.189.183-.286.269l-.979-.42a.63.63,0,0,0-.575.04,5.006,5.006,0,0,1-1.391.577.63.63,0,0,0-.433.378l-.4.988a6.04,6.04,0,0,1-.785,0Zm-8.657,7.3H5.037v2.519H1.259Z" transform="translate(8.186 6.295)" fill="#831027"/>
      <path id="Path_17" data-name="Path 17" d="M21.014,5.175a.63.63,0,1,0,.787.984L24.95,3.64a.63.63,0,0,0,0-.984L21.8.138a.63.63,0,0,0-.787.984l1.747,1.4H2.519A2.519,2.519,0,0,0,0,5.037V6.926a.63.63,0,0,0,1.259,0V5.037A1.259,1.259,0,0,1,2.519,3.778H22.761Z" transform="translate(2.519 0)" fill="#831027"/>
      <path id="Path_18" data-name="Path 18" d="M7.32,20.916a.63.63,0,0,0-.885.1l-1.4,1.747V2.519A2.519,2.519,0,0,0,2.519,0H.63a.63.63,0,0,0,0,1.259H2.519A1.259,1.259,0,0,1,3.778,2.519V22.761l-1.4-1.747A.63.63,0,0,0,1.4,21.8L3.916,24.95a.63.63,0,0,0,.983,0L7.418,21.8A.63.63,0,0,0,7.32,20.916Z" transform="translate(30.223 2.519)" fill="#831027"/>
      <path id="Path_19" data-name="Path 19" d="M25.186,2.519V.63a.63.63,0,0,0-1.259,0V2.519a1.259,1.259,0,0,1-1.259,1.259H2.425l1.747-1.4A.63.63,0,0,0,3.385,1.4L.236,3.916a.63.63,0,0,0,0,.984L3.385,7.418a.63.63,0,0,0,.787-.984l-1.747-1.4H22.667A2.519,2.519,0,0,0,25.186,2.519Z" transform="translate(10.074 30.223)" fill="#831027"/>
      <path id="Path_20" data-name="Path 20" d="M5.037,25.174H6.926a.63.63,0,1,0,0-1.259H5.037a1.259,1.259,0,0,1-1.259-1.259V2.413l1.4,1.747a.63.63,0,1,0,.984-.787L3.64.224a.651.651,0,0,0-.984,0L.138,3.373a.63.63,0,1,0,.984.787l1.4-1.747V22.655A2.519,2.519,0,0,0,5.037,25.174Z" transform="translate(0 10.086)" fill="#831027"/>
    </g>
  </g>
</svg>
