<svg width="219" height="119" viewBox="0 0 219 119" fill="none" xmlns="http://www.w3.org/2000/svg">
<path fill-rule="evenodd" clip-rule="evenodd" d="M113.778 43.6195C103.129 43.6195 103.129 55.1631 103.129 55.1631C103.129 55.1631 102.278 61.5955 103.129 67.1751C103.556 72.7127 104.833 79.5715 114.63 79.5715C124.895 79.5715 125.749 69.7301 125.749 67.6016V66.7499H118.889C118.889 71.0082 118.037 73.5632 113.778 73.5632C109.093 73.5632 109.475 65.855 109.475 65.855C109.475 65.855 109.092 61.1679 109.475 55.5883C109.902 48.7727 114.204 49.1991 114.204 49.1991C119.316 49.1991 119.316 56.9085 119.316 56.9085H125.748V55.1619C125.32 50.9036 124.47 43.6195 113.778 43.6195ZM144.15 43.1931C139.847 43.1931 137.292 46.1745 137.292 46.1745V30.7979H130.902V79.1451H137.718V53.885C137.718 53.885 137.718 49.1991 142.022 49.1991C146.28 49.1991 146.707 52.6069 146.707 53.885V79.1451H152.713V53.4598C152.711 53.4598 152.711 43.1931 144.15 43.1931ZM165.108 70.1577C164.681 65.0033 165.108 63.2989 165.108 63.2989H182.232C182.232 60.7427 182.232 59.8922 181.806 55.1642C181.379 50.9048 179.634 43.6207 170.262 43.6207C159.527 43.6207 158.675 55.5907 158.675 55.5907C158.675 55.5907 158.249 61.5979 158.675 67.1763C159.527 72.7139 160.38 79.998 170.645 79.998C180.952 79.998 181.806 69.7325 181.806 67.6039H174.521C174.521 76.589 165.96 75.7385 165.108 70.1577ZM170.262 49.2003C175.373 49.2003 174.521 57.7625 174.521 57.7625H165.533C165.532 48.3475 170.262 49.2003 170.262 49.2003ZM85.1533 43.6195C74.4614 43.6195 74.035 55.5895 74.035 55.5895C74.035 55.5895 73.6086 61.1691 74.035 67.1751C74.4614 72.7127 75.3131 79.5715 86.005 79.5715C96.6969 79.5715 96.6969 69.7301 97.1233 67.6016V55.5895C97.1221 51.33 95.8441 43.6195 85.1533 43.6195ZM89.838 65.8562C89.838 71.0082 89.4116 73.5643 85.5786 73.5643C80.4242 73.5643 80.8506 66.3246 80.8506 66.3246V55.5907C80.8506 49.2015 85.5786 49.2015 85.5786 49.2015C90.2645 49.2015 90.2645 56.0591 90.2645 56.0591C90.2645 56.0591 89.838 63.7253 89.838 65.8562ZM63.7683 53.885C63.7683 53.885 68.8794 52.1817 68.8794 42.7667C68.8794 32.0748 57.3359 31.2231 54.7797 31.2231H44.9395V79.1451H51.7971V56.9096H55.205C61.1689 56.9096 61.6374 62.0208 61.6374 62.0208L62.4891 79.1451H69.3047C69.3047 79.1451 68.8783 70.1577 68.453 62.4472C67.6025 54.7378 63.7683 53.885 63.7683 53.885ZM51.7983 51.33V37.6555C53.5028 37.6555 62.065 36.8039 62.065 43.6183C62.065 52.6081 51.7983 51.33 51.7983 51.33Z" fill="#4E6183"/>
<path fill-rule="evenodd" clip-rule="evenodd" d="M170.262 0H49.2013L0 58.614L49.2001 118.078H170.261L218.566 58.614L170.262 0ZM167.664 112.5H51.7983L6.86002 58.614L51.7995 5.96397H167.664L211.752 58.614L167.664 112.5Z" fill="#4E6183"/>
</svg>
