<svg xmlns="http://www.w3.org/2000/svg" width="47.698" height="40.001" viewBox="0 0 47.698 40.001">
  <path id="shake-hands" d="M47.494,53.883,39.312,45.7a.7.7,0,0,0-.988.988l7.687,7.687L43.092,57.3,31.715,45.92,34.635,43l1.537,1.537a.7.7,0,0,0,.988-.988l-2.031-2.031a.7.7,0,0,0-.988,0l-3.907,3.908a.7.7,0,0,0,0,.988l.5.5-1.46,1.46a3.164,3.164,0,0,1-2.2,1,5.315,5.315,0,0,0-3.273,1.514,4.708,4.708,0,0,0-3.212-1.462,2.649,2.649,0,0,1-2.166-.962l-.007-.008L16.962,47l.5-.5a.7.7,0,0,0,0-.988L13.558,41.6a.7.7,0,0,0-.988,0L.2,53.961a.7.7,0,0,0,0,.988l3.908,3.908a.7.7,0,0,0,.988,0l.5-.5,1.439,1.439.009.01a3.578,3.578,0,0,1,1.02,2.33A6.078,6.078,0,0,0,9.7,65.416l1.267,1.267-1,1a2.815,2.815,0,0,0,2.155,4.759A2.824,2.824,0,0,0,15.089,75.4a2.824,2.824,0,0,0,2.964,2.963,2.818,2.818,0,0,0,4.757,2.155l1-1,.988.988a2.835,2.835,0,0,0,4.679-1.271A2.823,2.823,0,0,0,34,76.878a2.854,2.854,0,0,0,2.963-2.962,2.8,2.8,0,0,0,2.15-4.764l-2.468-2.468,1.429-1.429a5.283,5.283,0,0,0,1.55-3.267,2.793,2.793,0,0,1,1.008-2.252l1.46-1.46.5.5a.7.7,0,0,0,.988,0l3.908-3.907a.7.7,0,0,0,0-.988ZM8.09,55.869a.7.7,0,0,0-.988-.988L4.607,57.375l-2.92-2.92L13.064,43.079,15.983,46,9.255,52.727a.7.7,0,1,0,.988.988l5.731-5.731.966.965L7.548,58.321l-.955-.955Zm2.894,14.776a1.463,1.463,0,0,1-.024-1.975l2.987-2.987a1.413,1.413,0,0,1,1.975.024,1.337,1.337,0,0,1,0,1.951l-2.987,2.987a1.381,1.381,0,0,1-1.951,0Zm2.963,2.963a1.385,1.385,0,0,1-.024-1.975l2.987-2.987a1.4,1.4,0,0,1,1.975.024,1.383,1.383,0,0,1,0,1.95h0L15.9,73.608A1.381,1.381,0,0,1,13.946,73.608Zm2.939,2.939a1.344,1.344,0,0,1,0-1.951l2.987-2.987a1.48,1.48,0,0,1,1.951,0,1.393,1.393,0,0,1,.024,1.975L18.86,76.571A1.435,1.435,0,0,1,16.885,76.547Zm4.937,2.987a1.4,1.4,0,0,1-1.975-1.975l2.987-2.987a1.392,1.392,0,0,1,1.975.024,1.33,1.33,0,0,1,0,1.951Zm5.938-.012a1.4,1.4,0,0,1-1.974,0l-.988-.988,1-1a2.76,2.76,0,0,0,.716-1.234l1.246,1.246A1.505,1.505,0,0,1,27.76,79.522ZM38.231,61.915a3.861,3.861,0,0,1-1.142,2.352L35.66,65.7l-1.8-1.8a.7.7,0,0,0-.988.988l5.259,5.259c1.135,1.37-.7,3.247-1.975,1.974l-2.969-2.968a.7.7,0,0,0-.988.988L35.165,73.1c1.207,1.207-.683,3.243-1.975,1.974l-2.96-2.96a.7.7,0,0,0-.988.988L32.2,76.065c1.253,1.228-.733,3.216-1.974,1.975l-2.963-2.963a.7.7,0,0,0-.734-.162,2.911,2.911,0,0,0-2.892-2.14,2.848,2.848,0,0,0-2.961-2.961,2.824,2.824,0,0,0-2.963-2.964A2.817,2.817,0,0,0,12.959,64.7l-1,1-1.267-1.267A4.72,4.72,0,0,1,9.453,61.91a5.329,5.329,0,0,0-.941-2.556l9.446-9.446a3.741,3.741,0,0,0,2.64.914,3.8,3.8,0,0,1,2.218,1.053l-4.988,4.989a3.4,3.4,0,0,0,4.8,4.8l3.513-3.513,4.574,4.574a.7.7,0,0,0,.988-.988l-4.574-4.574.988-.987a.7.7,0,0,0-.988-.988L21.644,60.68a2,2,0,1,1-2.827-2.827l5.941-5.941a4,4,0,0,1,2.32-1.141,4.273,4.273,0,0,0,2.662-.943l9.434,9.445a4,4,0,0,0-.942,2.642Zm1.909-3.662-9.376-9.387.96-.96,9.381,9.381Z" transform="translate(0 -41.313)" fill="#36b37e"/>
</svg>
