<svg xmlns="http://www.w3.org/2000/svg" width="40.157" height="40" viewBox="0 0 40.157 40">
  <g id="Software_Development" data-name="Software Development" transform="translate(0 -1)">
    <path id="Path_2" data-name="Path 2" d="M36.627,1H3.529A3.533,3.533,0,0,0,0,4.529V37.471A3.533,3.533,0,0,0,3.529,41h33.1a3.533,3.533,0,0,0,3.529-3.529V4.529A3.533,3.533,0,0,0,36.627,1ZM3.529,3.353h33.1A1.178,1.178,0,0,1,37.8,4.529v5.882H2.353V4.529A1.178,1.178,0,0,1,3.529,3.353Zm33.1,35.294H3.529a1.178,1.178,0,0,1-1.176-1.176V12.765H37.8V37.471A1.178,1.178,0,0,1,36.627,38.647Z" fill="#fff"/>
    <path id="Path_3" data-name="Path 3" d="M204.7,196.092a1.177,1.177,0,0,0-1.545.618l-7.059,16.471a1.176,1.176,0,0,0,2.163.927l7.059-16.471a1.176,1.176,0,0,0-.618-1.545Z" transform="translate(-180.624 -179.703)" fill="#fff"/>
    <path id="Path_4" data-name="Path 4" d="M83.981,241.441a1.176,1.176,0,0,0-1.654-.184l-5.882,4.706a1.177,1.177,0,0,0,0,1.837l5.882,4.706a1.176,1.176,0,1,0,1.47-1.837l-4.734-3.787,4.734-3.787a1.176,1.176,0,0,0,.184-1.654Z" transform="translate(-70.043 -221.176)" fill="#fff"/>
    <path id="Path_5" data-name="Path 5" d="M338.793,245.963l-5.882-4.706a1.176,1.176,0,1,0-1.47,1.837l4.734,3.787-4.734,3.787a1.176,1.176,0,1,0,1.47,1.837l5.882-4.706A1.177,1.177,0,0,0,338.793,245.963Z" transform="translate(-305.039 -221.175)" fill="#fff"/>
    <circle id="Ellipse_1" data-name="Ellipse 1" cx="1" cy="1" r="1" transform="translate(5.078 6)" fill="#fff"/>
    <ellipse id="Ellipse_2" data-name="Ellipse 2" cx="1.5" cy="1" rx="1.5" ry="1" transform="translate(9.078 6)" fill="#fff"/>
    <circle id="Ellipse_3" data-name="Ellipse 3" cx="1" cy="1" r="1" transform="translate(14.078 6)" fill="#fff"/>
    <path id="Path_6" data-name="Path 6" d="M332.176,63.353h7.059a1.176,1.176,0,1,0,0-2.353h-7.059a1.176,1.176,0,1,0,0,2.353Z" transform="translate(-305.039 -55.294)" fill="#fff"/>
  </g>
</svg>
