<svg xmlns="http://www.w3.org/2000/svg" width="56.044" height="47" viewBox="0 0 56.044 47">
  <path id="Technology_Consulting" data-name="Technology Consulting" d="M55.8,56.083,46.191,46.47a.821.821,0,0,0-1.161,1.161l9.032,9.032-3.431,3.43L37.265,46.726l3.43-3.431L42.5,45.1a.821.821,0,0,0,1.161-1.161l-2.386-2.386a.821.821,0,0,0-1.161,0l-4.591,4.592a.821.821,0,0,0,0,1.161l.592.592L34.4,49.613a3.718,3.718,0,0,1-2.581,1.17,6.245,6.245,0,0,0-3.846,1.779A5.532,5.532,0,0,0,24.2,50.844a3.113,3.113,0,0,1-2.545-1.13l-.008-.009L19.93,47.99l.592-.592a.821.821,0,0,0,0-1.161L15.93,41.647a.821.821,0,0,0-1.161,0L.241,56.175a.821.821,0,0,0,0,1.161l4.592,4.592a.821.821,0,0,0,1.161,0l.592-.592,1.691,1.691.011.012a4.2,4.2,0,0,1,1.2,2.738A7.141,7.141,0,0,0,11.4,69.633l1.489,1.489L11.716,72.3a3.308,3.308,0,0,0,2.532,5.591,3.318,3.318,0,0,0,3.481,3.481,3.318,3.318,0,0,0,3.483,3.481,3.311,3.311,0,0,0,5.59,2.532l1.174-1.174,1.161,1.161a3.331,3.331,0,0,0,5.5-1.493,3.317,3.317,0,0,0,5.32-2.774,3.353,3.353,0,0,0,3.481-3.481,3.292,3.292,0,0,0,2.526-5.6l-2.9-2.9,1.679-1.679a6.207,6.207,0,0,0,1.821-3.839,3.281,3.281,0,0,1,1.184-2.647l1.715-1.715.591.591a.821.821,0,0,0,1.161,0L55.8,57.244a.821.821,0,0,0,0-1.161Zm-46.3,2.333a.821.821,0,1,0-1.161-1.161L5.413,60.186,1.982,56.755,15.35,43.388l3.43,3.43-7.906,7.906a.821.821,0,0,0,1.161,1.161l6.734-6.734L19.9,50.285,8.869,61.3,7.747,60.175Zm3.4,17.362a1.718,1.718,0,0,1-.028-2.32l3.509-3.509a1.66,1.66,0,0,1,2.32.028,1.571,1.571,0,0,1,0,2.292L15.2,75.778a1.623,1.623,0,0,1-2.292,0Zm3.481,3.481a1.627,1.627,0,0,1-.028-2.32l3.509-3.509a1.643,1.643,0,0,1,2.32.028,1.625,1.625,0,0,1,0,2.292h0l-3.509,3.509A1.623,1.623,0,0,1,16.387,79.259Zm3.453,3.453a1.579,1.579,0,0,1,0-2.292l3.509-3.509a1.739,1.739,0,0,1,2.292,0,1.637,1.637,0,0,1,.028,2.32L22.16,82.74A1.686,1.686,0,0,1,19.84,82.712Zm5.8,3.509a1.641,1.641,0,0,1-2.32-2.32l3.509-3.509a1.636,1.636,0,0,1,2.32.028,1.562,1.562,0,0,1,0,2.292Zm6.976-.014a1.641,1.641,0,0,1-2.32,0l-1.161-1.161,1.174-1.174a3.243,3.243,0,0,0,.842-1.45l1.464,1.464A1.768,1.768,0,0,1,32.617,86.208Zm12.3-20.688a4.537,4.537,0,0,1-1.342,2.764L41.9,69.962l-2.117-2.117a.821.821,0,0,0-1.161,1.161L44.8,75.185c1.334,1.61-.825,3.815-2.32,2.319l-3.488-3.488a.821.821,0,0,0-1.161,1.161l3.486,3.486c1.419,1.419-.8,3.81-2.321,2.319L35.519,77.5a.821.821,0,0,0-1.161,1.161l3.481,3.481c1.473,1.443-.861,3.779-2.32,2.321l-3.481-3.482a.82.82,0,0,0-.862-.19,3.42,3.42,0,0,0-3.4-2.514A3.346,3.346,0,0,0,24.3,74.8a3.318,3.318,0,0,0-3.481-3.483,3.309,3.309,0,0,0-5.591-2.532l-1.174,1.174-1.489-1.489a5.546,5.546,0,0,1-1.456-2.958,6.261,6.261,0,0,0-1.105-3l11.1-11.1a4.4,4.4,0,0,0,3.1,1.074,4.459,4.459,0,0,1,2.606,1.238l-5.861,5.862a3.991,3.991,0,0,0,5.644,5.645L30.719,61.1l5.374,5.374a.821.821,0,1,0,1.161-1.161L31.88,59.941l1.16-1.16a.821.821,0,1,0-1.161-1.161l-6.448,6.448a2.349,2.349,0,1,1-3.322-3.322l6.98-6.98a4.7,4.7,0,0,1,2.726-1.34,5.021,5.021,0,0,0,3.127-1.108l11.085,11.1a4.7,4.7,0,0,0-1.107,3.1Zm2.243-4.3L36.148,50.188l1.128-1.128L48.3,60.082Z" transform="translate(0 -41.313)" fill="#09325b"/>
</svg>
