<svg id="twitter_1_" data-name="twitter(1)" xmlns="http://www.w3.org/2000/svg" width="25.599" height="20.8" viewBox="0 0 25.599 20.8">
  <path id="Shape" d="M25.6,2.462a10.942,10.942,0,0,1-3.024.829A5.219,5.219,0,0,0,24.884.39a10.488,10.488,0,0,1-3.328,1.27A5.248,5.248,0,0,0,12.478,5.25a5.4,5.4,0,0,0,.122,1.2A14.855,14.855,0,0,1,1.782.957,5.25,5.25,0,0,0,3.4,7.971a5.183,5.183,0,0,1-2.371-.646v.058a5.272,5.272,0,0,0,4.2,5.157,5.238,5.238,0,0,1-1.376.173,4.64,4.64,0,0,1-.994-.09,5.3,5.3,0,0,0,4.9,3.656,10.545,10.545,0,0,1-6.507,2.238A9.83,9.83,0,0,1,0,18.444,14.775,14.775,0,0,0,8.051,20.8,14.834,14.834,0,0,0,22.988,5.865c0-.232-.008-.456-.019-.678A10.47,10.47,0,0,0,25.6,2.462Z" transform="translate(0)" fill="#09325b"/>
</svg>
