<svg xmlns="http://www.w3.org/2000/svg" width="36.184" height="40.001" viewBox="0 0 36.184 40.001">
  <g id="web-design" transform="translate(-24.43 0)">
    <path id="Path_13" data-name="Path 13" d="M57.458,5.2h-.475a3.419,3.419,0,0,0-5.761-3.683L48.758,5.2H27.586A3.16,3.16,0,0,0,24.43,8.358V28.536a3.16,3.16,0,0,0,3.156,3.156H39.845l-.926,3.89h-2a2.366,2.366,0,0,0-2.363,2.363v.493H32.092a.781.781,0,1,0,0,1.563H52.951a.781.781,0,1,0,0-1.562H50.487v-.493a2.366,2.366,0,0,0-2.363-2.363h-2l-.926-3.89H57.458a3.16,3.16,0,0,0,3.156-3.156V8.358A3.16,3.16,0,0,0,57.458,5.2ZM46.264,18.936c-1.221.855-3.51-.307-5.7.859-.533-2.77-.2-5.375,2.578-5.95a4.973,4.973,0,0,1,1.074-.1l2.826,2.1A2.522,2.522,0,0,1,46.264,18.936Zm.787-8.374L49.262,12.2l-1.7,2.074-2-1.486Zm5.47-8.174A1.857,1.857,0,1,1,55.5,4.6l-5.245,6.4L47.921,9.262Zm-3.6,35.557v.493H36.119v-.493a.8.8,0,0,1,.8-.8h11.2a.8.8,0,0,1,.8.8Zm-4.406-2.363H40.525l.926-3.89h2.141Zm14.532-7.046a1.6,1.6,0,0,1-1.594,1.594H27.586a1.6,1.6,0,0,1-1.594-1.594V24.877h2.232a.781.781,0,0,0,0-1.563H25.992V8.358a1.6,1.6,0,0,1,1.594-1.594H47.712L44.089,12.18a5.338,5.338,0,0,0-4.06,1.715c-1.362,1.589-1.6,4.087-.711,7.423a.782.782,0,0,0,1.295.363c2.02-1.93,4.536.175,6.789-1.648A4.092,4.092,0,0,0,48.583,15.5l7.161-8.73h1.714a1.6,1.6,0,0,1,1.594,1.594V23.315H34.475a.781.781,0,0,0,0,1.562H59.051Z" transform="translate(0 0)" fill="#faad13"/>
    <path id="Path_14" data-name="Path 14" d="M103.663,298.439a.781.781,0,1,0,.919.613A.78.78,0,0,0,103.663,298.439Z" transform="translate(-72.464 -275.109)" fill="#faad13"/>
  </g>
</svg>
